# xmcd
#
# Track frame offsets:
#   150
#   13203
#   26067
#   39767
#   49682
#   59733
#   72117
#   84969
#   97915
#   114029
#   128428
#   137417
#   147952
#   162167
#   175632
#   186709
#   201908
#   213441
#   224296
#   239412
#   253891
#   266916
#   278478
#   291820
#   312660
#   326095
#
# Disc length: 4498 seconds
#
# Revision: 0
# Processed by: cddbd v1.4PL0 Copyright (c) Steve Scherf et al.
# Submitted via: uFREEDB ActiveX Control 1.5
#
DISCID=8311901a
DTITLE=Tião Carreiro and Pardinho - Só Pagodes 1
DYEAR=2003
DGENRE=Country
TTITLE0=Adeus São Paulo
TTITLE1=Pagode Em Brasilia
TTITLE2=Rei Do Pagode
TTITLE3=Não É Mole Não
TTITLE4=Linha De Frente
TTITLE5=Rei Sem Coroa
TTITLE6=Bi-Campeão Mundial
TTITLE7=Pagode Na Praça
TTITLE8=Em Tempo De Avanço
TTITLE9=Nove E Nove
TTITLE10=Começo Do Fim
TTITLE11=Falou E Disse
TTITLE12=Chora Viola
TTITLE13=É Isto Que O Povo Quer
TTITLE14=Empreitada Perigosa
TTITLE15=Ponta De Espada
TTITLE16=Sete Flexas
TTITLE17=A Ferro E Fogo
TTITLE18=Uma Coisa Puxa A Outra
TTITLE19=Tudo Certo
TTITLE20=Baiano Do Côco
TTITLE21=Na Barba Do Leão
TTITLE22=Bandeira Branca
TTITLE23=Pagode Do Alá
TTITLE24=A Coisa Ficou Bonita
TTITLE25=Vacilou Virou Petisco
EXTD=
EXTT0=
EXTT1=
EXTT2=
EXTT3=
EXTT4=
EXTT5=
EXTT6=
EXTT7=
EXTT8=
EXTT9=
EXTT10=
EXTT11=
EXTT12=
EXTT13=
EXTT14=
EXTT15=
EXTT16=
EXTT17=
EXTT18=
EXTT19=
EXTT20=
EXTT21=
EXTT22=
EXTT23=
EXTT24=
EXTT25=
PLAYORDER=
